<?xml version="1.0" encoding="utf-8"?>
<!-- Generator: Adobe Illustrator 25.3.1, SVG Export Plug-In . SVG Version: 6.00 Build 0)  -->
<svg version="1.1" id="레이어_1" xmlns="http://www.w3.org/2000/svg" xmlns:xlink="http://www.w3.org/1999/xlink" x="0px"
	 y="0px" viewBox="0 0 20 20" style="enable-background:new 0 0 20 20;" xml:space="preserve">
<g id="레이어_2_1_">
	<g>
		<g>
			<path d="M4.4,4.7c3.2,3.2,6.3,6.3,9.5,9.5c0.5,0.5,0.9,0.9,1.4,1.4c0.2,0.2,0.5-0.1,0.3-0.3c-3.2-3.2-6.3-6.3-9.5-9.5
				C5.6,5.3,5.2,4.9,4.7,4.4C4.5,4.2,4.2,4.5,4.4,4.7L4.4,4.7z"/>
		</g>
	</g>
	<g>
		<g>
			<path d="M15.3,4.4c-3.2,3.2-6.3,6.3-9.5,9.5c-0.5,0.5-0.9,0.9-1.4,1.4c-0.2,0.2,0.1,0.5,0.3,0.3c3.2-3.2,6.3-6.3,9.5-9.5
				c0.5-0.5,0.9-0.9,1.4-1.4C15.8,4.5,15.5,4.2,15.3,4.4L15.3,4.4z"/>
		</g>
	</g>
</g>
<g id="레이어_4">
</g>
<g id="레이어_3">
</g>
</svg>
