<?xml version="1.0" encoding="utf-8"?>
<!-- Generator: Adobe Illustrator 25.3.1, SVG Export Plug-In . SVG Version: 6.00 Build 0)  -->
<svg version="1.1" id="레이어_1" xmlns="http://www.w3.org/2000/svg" xmlns:xlink="http://www.w3.org/1999/xlink" x="0px"
	 y="0px" viewBox="0 0 20 20" style="enable-background:new 0 0 20 20;" xml:space="preserve">
<g id="레이어_2_1_">
	<g>
		<g>
			<path d="M1,5.8c5.3,0,10.5,0,15.8,0c0.7,0,1.5,0,2.2,0c1,0,1-1.5,0-1.5c-5.3,0-10.5,0-15.8,0c-0.7,0-1.5,0-2.2,0
				C0,4.3,0,5.8,1,5.8L1,5.8z"/>
		</g>
	</g>
	<g>
		<g>
			<path d="M1,10.8c5.3,0,10.5,0,15.8,0c0.7,0,1.5,0,2.2,0c1,0,1-1.5,0-1.5c-5.3,0-10.5,0-15.8,0c-0.7,0-1.5,0-2.2,0
				C0,9.2,0,10.8,1,10.8L1,10.8z"/>
		</g>
	</g>
	<g>
		<g>
			<path d="M1,15.7c5.3,0,10.5,0,15.8,0c0.7,0,1.5,0,2.2,0c1,0,1-1.5,0-1.5c-5.3,0-10.5,0-15.8,0c-0.7,0-1.5,0-2.2,0
				C0,14.2,0,15.7,1,15.7L1,15.7z"/>
		</g>
	</g>
</g>
<g id="레이어_4">
</g>
<g id="레이어_3">
</g>
</svg>
